<svg width="24" height="24" viewBox="0 0 24 24" fill="none" xmlns="http://www.w3.org/2000/svg">
  <circle cx="12" cy="12" r="12" fill="#0D9F1B"/>
  <path d="M7.2 16.7L7.9 14.1C7.4 13.4 7.1 12.5 7.1 11.6C7.1 9.2 9.1 7.3 11.6 7.3C14.1 7.3 16.1 9.2 16.1 11.6C16.1 14.1 14.1 16 11.6 16C10.8 16 10 15.8 9.3 15.4L7.2 16.7ZM11.6 8.6C9.9 8.6 8.5 9.9 8.5 11.6C8.5 12.4 8.8 13.1 9.3 13.7L9.5 13.9L9.1 15.1L10.4 14.7L10.6 14.8C11 15 11.3 15.1 11.6 15.1C13.4 15.1 14.8 13.8 14.8 12.1C14.8 10 13.5 8.6 11.6 8.6Z" fill="white"/>
</svg>
