<svg width="24" height="24" viewBox="0 0 24 24" fill="none" xmlns="http://www.w3.org/2000/svg">
  <circle cx="12" cy="12" r="12" fill="#0D9F1B"/>
  <path d="M16.7 9.2C16.6 8.7 16.2 8.3 15.7 8.2C14.8 8 12 8 12 8C12 8 9.2 8 8.3 8.2C7.8 8.3 7.4 8.7 7.3 9.2C7.1 10.1 7.1 12 7.1 12C7.1 12 7.1 13.9 7.3 14.8C7.4 15.3 7.8 15.7 8.3 15.8C9.2 16 12 16 12 16C12 16 14.8 16 15.7 15.8C16.2 15.7 16.6 15.3 16.7 14.8C16.9 13.9 16.9 12 16.9 12C16.9 12 16.9 10.1 16.7 9.2ZM11 13.9V10.1L14.2 12L11 13.9Z" fill="white"/>
</svg>
